# xmcd
#
# Track frame offsets:
#  150
#  15432
#  30804
#  46094
#  62046
#  77597
#  90817
#  105413
#  117458
#  130955
#  147725
#  159425
#
# Disc length: 2342 seconds
#
# Revision: 0
# Processed by: cddbd v1.5.1PL2 Copyright (c) Steve Scherf et al.
# Submitted via: Collectorz.com_Music_Collector 6.10
#
DISCID=8709240c
DTITLE=8 Ball Aitken - Odd Ball In
DYEAR=2006
DGENRE=Blues
TTITLE0=Cowboy
TTITLE1=Sagas and Dramas
TTITLE2=Heaven Is In My Bed
TTITLE3=By The Side Of The Road
TTITLE4=I Believe You Can
TTITLE5=You're Out Of The Game
TTITLE6=Your Poison
TTITLE7=Lucky Charms
TTITLE8=Work Smarter
TTITLE9=Young Girl
TTITLE10=Are You Ashamed?
TTITLE11=Flamin' Thongs
EXTD=
EXTT0=
EXTT1=
EXTT2=
EXTT3=
EXTT4=
EXTT5=
EXTT6=
EXTT7=
EXTT8=
EXTT9=
EXTT10=
EXTT11=
PLAYORDER=
